<?xml version="1.0" encoding="UTF-8"?>
<svg id="Capa_2" data-name="Capa 2" xmlns="http://www.w3.org/2000/svg" viewBox="0 0 197.22 42.09">
  <defs>
    <style>
      .cls-1 {
        fill: #313ddd;
      }

      .cls-2 {
        fill: #e8f043;
        fill-rule: evenodd;
      }
    </style>
  </defs>
  <g id="Capa_1-2" data-name="Capa 1">
    <g>
      <g>
        <path class="cls-1" d="M35.63,9.38c.88-.42,1.75-.63,2.6-.63s1.59.11,2.29.33c.7.22,1.49.33,2.35.33,1.38,0,2.56-.37,3.52-1.1.96-.73,1.52-1.88,1.67-3.43.13-1.4-.21-2.57-1.04-3.49s-2.04-1.38-3.63-1.38c-.94,0-1.84.16-2.7.48s-1.73.83-2.62,1.53c-.89.7-1.91,1.63-3.04,2.78l-16.84,17.64c.26-.98.52-1.95.78-2.96.49-1.87.97-3.65,1.43-5.35.46-1.7.88-3.21,1.24-4.52.36-1.31.65-2.31.87-3,.19-.6.42-1.03.69-1.3.27-.27.59-.46.95-.58l1.38-.43c.52-.21.93-.45,1.23-.71.3-.26.45-.64.45-1.14,0-.46-.14-.84-.42-1.12-.28-.29-.74-.43-1.37-.43h-14.14c-.75,0-1.34.17-1.77.5-.43.34-.65.78-.65,1.34,0,.37.11.67.32.91.21.24.52.45.92.62l1.33.38c.4.13.68.33.82.58s.16.62.04,1.1c-.13.65-.35,1.59-.65,2.8-.3,1.21-.65,2.6-1.05,4.17-.4,1.57-.83,3.22-1.28,4.96-.45,1.74-.91,3.48-1.37,5.22-.46,1.74-.91,3.4-1.34,4.98s-.81,2.97-1.14,4.18c-.33,1.21-.59,2.15-.78,2.8-.21.6-.44,1.04-.68,1.34-.24.3-.59.52-1.05.68l-1.44.38c-.4.13-.76.36-1.07.68S-.02,39.21,0,39.7c0,.46.13.84.4,1.14.27.3.8.45,1.59.45h13.96c.75,0,1.32-.16,1.72-.49.39-.33.59-.77.59-1.33,0-.44-.12-.79-.38-1.04s-.57-.47-.95-.66l-1.21-.4c-.37-.13-.63-.32-.79-.55-.16-.23-.21-.53-.13-.89.06-.33.21-1.01.46-2.05s.57-2.33.95-3.88c.13-.54.28-1.11.43-1.68l4.86-5.02,5.3,13.95c.63,1.69,1.39,2.92,2.26,3.69s2.19,1.15,3.94,1.15c1.38,0,2.68-.26,3.89-.79,1.21-.53,2.29-1.27,3.23-2.24.94-.96,1.67-2.1,2.19-3.4.29-.67.34-1.19.16-1.56-.18-.37-.45-.6-.79-.69-.48-.13-1.01,0-1.59.43-.33.38-.64.68-.95.89-.31.21-.65.32-1.04.32-.65,0-1.17-.26-1.56-.79s-.76-1.28-1.12-2.26l-6.29-16.58,3.84-3.96c.88-.96,1.77-1.65,2.65-2.08Z"/>
        <path class="cls-1" d="M72.08,36.72c-.16,0-.3.05-.41.14s-.22.2-.33.33c-.15.18-.32.37-.52.56-.2.19-.5.29-.9.29s-.68-.13-.89-.38c-.21-.25-.31-.64-.31-1.15v-14.21c0-2.31-.82-4.15-2.46-5.51-1.64-1.36-4.14-2.04-7.49-2.04-2.72,0-5,.36-6.85,1.08-1.85.72-3.25,1.64-4.2,2.75-.95,1.11-1.42,2.24-1.42,3.39,0,.95.29,1.69.87,2.23s1.45.81,2.6.81c1.33,0,2.36-.3,3.1-.89s1.11-1.44,1.11-2.56v-2.41c0-.66.29-1.22.87-1.68s1.41-.7,2.49-.7c1.18,0,2.1.35,2.76,1.05s.98,1.7.98,2.99v7.7c-.35-.11-.71-.21-1.11-.29-.96-.2-2.03-.3-3.21-.3-3.66,0-6.51.7-8.55,2.1-2.04,1.4-3.06,3.24-3.06,5.52,0,1.91.75,3.46,2.24,4.65,1.49,1.18,3.43,1.78,5.82,1.78,1.89,0,3.69-.39,5.38-1.16,1.2-.55,2.23-1.27,3.09-2.15.18.89.63,1.62,1.38,2.19.97.75,2.28,1.12,3.92,1.12,1.26,0,2.31-.23,3.17-.7s1.5-1.03,1.93-1.69c.43-.66.64-1.31.64-1.93,0-.27-.05-.5-.16-.67-.11-.17-.27-.26-.49-.26ZM56.94,38.47c-1.15,0-2.09-.36-2.81-1.09-.73-.73-1.09-1.77-1.09-3.12s.43-2.44,1.28-3.21c.86-.77,2.04-1.16,3.55-1.16.75,0,1.44.08,2.09.25.38.1.76.22,1.13.37v6.42c-.4.33-.83.62-1.31.86-.91.46-1.86.68-2.84.68Z"/>
        <path class="cls-1" d="M87.01,38.93l-1.01-.27c-.33-.11-.57-.3-.74-.57-.16-.27-.25-.69-.25-1.26V2.41c0-.53-.15-.96-.45-1.28s-.76-.49-1.38-.49c-.31,0-.68.05-1.12.16s-1.02.3-1.75.57l-5,1.86c-.49.18-.83.37-1.01.56-.18.19-.27.44-.27.75,0,.26.07.46.22.63.15.16.38.29.71.38l1.45.11c.31.05.54.18.68.38.15.2.22.54.22,1.01v29.77c0,.58-.08,1-.25,1.26s-.41.45-.74.57l-1.07.27c-.35.13-.6.29-.77.48-.16.19-.25.43-.25.72,0,.35.12.62.37.83.25.21.63.31,1.16.31h10.74c.53,0,.92-.1,1.18-.31.25-.21.38-.49.38-.83,0-.29-.09-.54-.26-.74-.17-.2-.44-.35-.81-.46Z"/>
        <path class="cls-1" d="M117.37,36.72c-.16,0-.3.05-.41.14s-.22.2-.33.33c-.15.18-.32.37-.52.56-.2.19-.5.29-.9.29s-.68-.13-.89-.38c-.21-.25-.31-.64-.31-1.15v-14.21c0-2.31-.82-4.15-2.46-5.51-1.64-1.36-4.14-2.04-7.49-2.04-2.72,0-5,.36-6.85,1.08-1.85.72-3.25,1.64-4.2,2.75-.95,1.11-1.42,2.24-1.42,3.39,0,.95.29,1.69.87,2.23s1.45.81,2.6.81c1.33,0,2.36-.3,3.1-.89s1.11-1.44,1.11-2.56v-2.41c0-.66.29-1.22.87-1.68s1.41-.7,2.49-.7c1.18,0,2.1.35,2.76,1.05s.98,1.7.98,2.99v7.7c-.35-.11-.71-.21-1.11-.29-.96-.2-2.03-.3-3.21-.3-3.66,0-6.51.7-8.55,2.1-2.04,1.4-3.06,3.24-3.06,5.52,0,1.91.75,3.46,2.24,4.65,1.49,1.18,3.43,1.78,5.82,1.78,1.89,0,3.69-.39,5.38-1.16,1.2-.55,2.23-1.27,3.09-2.15.18.89.63,1.62,1.38,2.19.97.75,2.28,1.12,3.92,1.12,1.26,0,2.31-.23,3.17-.7s1.5-1.03,1.93-1.69c.43-.66.64-1.31.64-1.93,0-.27-.05-.5-.16-.67-.11-.17-.27-.26-.49-.26ZM102.23,38.47c-1.15,0-2.09-.36-2.81-1.09-.73-.73-1.09-1.77-1.09-3.12s.43-2.44,1.28-3.21c.86-.77,2.04-1.16,3.55-1.16.75,0,1.44.08,2.09.25.38.1.76.22,1.13.37v6.42c-.4.33-.83.62-1.31.86-.91.46-1.86.68-2.84.68Z"/>
        <path class="cls-1" d="M148.89,38.93l-1.01-.27c-.35-.11-.6-.3-.75-.57-.16-.27-.23-.69-.23-1.26v-20.2c0-.53-.15-.96-.45-1.28-.3-.33-.74-.49-1.33-.49-.38,0-.79.06-1.23.18-.44.12-1,.31-1.69.56l-5.03,1.86c-.49.18-.83.37-1.01.56-.18.19-.27.44-.27.75,0,.26.07.46.22.63.15.16.39.29.74.38l1.42.11c.33.05.56.18.7.38s.21.54.21,1.01v13.7c-.93.79-1.83,1.38-2.71,1.76-.91.39-1.78.59-2.6.59-1.29,0-2.33-.4-3.1-1.2-.78-.8-1.16-2-1.16-3.61v-15.88c0-.53-.15-.96-.45-1.28-.3-.33-.76-.49-1.38-.49-.31,0-.68.05-1.12.16s-1.02.3-1.75.57l-5,1.86c-.49.18-.83.37-1.01.56-.18.19-.27.44-.27.75,0,.26.07.46.22.63.15.16.38.29.71.38l1.45.11c.31.05.54.18.68.38s.22.54.22,1.01v12.38c0,2.51.71,4.53,2.15,6.04,1.43,1.51,3.32,2.27,5.67,2.27,1.51,0,3.12-.43,4.84-1.28,1.42-.71,3.04-1.86,4.87-3.44v.02c0,1.18.34,2.15,1.03,2.9.68.75,1.53,1.12,2.53,1.12h5.44c.53,0,.92-.1,1.16-.31.25-.21.37-.49.37-.83,0-.29-.08-.54-.25-.74-.16-.2-.43-.35-.79-.46Z"/>
        <path class="cls-1" d="M171.02,26.77c-1.54-.88-3.72-1.59-6.55-2.16-1.44-.35-2.53-.71-3.28-1.11-.75-.39-1.25-.83-1.52-1.33-.26-.49-.4-1.03-.4-1.61,0-.97.35-1.76,1.05-2.39.7-.63,1.68-.94,2.94-.94,1.46,0,2.9.4,4.33,1.2,1.43.8,2.7,2.16,3.81,4.07.33.53.65.89.96,1.09.31.2.67.22,1.09.05.42-.16.67-.44.74-.83.07-.39.04-.92-.11-1.6l-1.34-5.19c-.09-.49-.23-.83-.42-1.02s-.42-.29-.7-.29c-.35,0-.64.11-.88.33-.24.22-.48.44-.74.66s-.6.33-1.04.33-.87-.11-1.35-.33-1.1-.44-1.84-.66-1.74-.33-2.98-.33c-1.93,0-3.63.33-5.08,1-1.46.67-2.6,1.59-3.42,2.79-.82,1.19-1.23,2.57-1.23,4.14s.3,2.87.92,4.02c.61,1.15,1.61,2.13,3.01,2.94,1.39.81,3.28,1.47,5.64,1.98,1.69.38,2.99.79,3.88,1.22.89.43,1.5.9,1.83,1.41s.49,1.08.49,1.72c0,1.06-.39,1.9-1.16,2.54-.77.64-1.95.96-3.51.96-1.09,0-2.16-.19-3.18-.56-1.03-.37-2-.98-2.92-1.83-.92-.85-1.79-1.97-2.61-3.38-.27-.44-.57-.73-.89-.89-.32-.15-.69-.15-1.11.01-.42.16-.67.45-.75.86s-.02.94.18,1.6l1.8,5.44c.16.47.33.81.49,1s.41.29.74.29c.36,0,.66-.1.87-.31.22-.21.45-.41.68-.62.24-.2.56-.3.96-.3s.82.1,1.31.3c.49.2,1.12.41,1.89.62.76.21,1.76.31,2.98.31,3.43,0,6.04-.76,7.83-2.27,1.79-1.51,2.69-3.53,2.69-6.07,0-1.4-.3-2.68-.9-3.83-.6-1.15-1.67-2.16-3.21-3.03Z"/>
        <path class="cls-1" d="M190.63,22.89c.58-1.64.83-3.02.75-4.13-.08-1.11-.46-1.95-1.13-2.53-.67-.57-1.64-.86-2.9-.86-1.77,0-3.35.41-4.76,1.24s-2.47,1.93-3.2,3.29c-.27.53-.41.97-.4,1.33,0,.36.14.6.4.72.22.09.44.1.67.04.23-.06.51-.25.86-.56.42-.4.78-.67,1.08-.82.3-.15.58-.22.83-.22.46,0,.75.27.89.81.14.54-.05,1.5-.56,2.88l-3.91,10.58c-.55,1.51-.81,2.81-.79,3.9.02,1.08.36,1.92,1.04,2.5.67.58,1.7.87,3.06.87,1.82,0,3.44-.41,4.85-1.24,1.41-.83,2.48-1.93,3.21-3.29.29-.53.43-.97.42-1.33,0-.36-.14-.6-.4-.72-.22-.11-.44-.13-.67-.05s-.51.26-.86.57c-.44.38-.8.65-1.09.81-.29.15-.56.23-.82.23-.46,0-.75-.27-.87-.82-.13-.55.04-1.5.52-2.87l3.77-10.33Z"/>
      </g>
      <path class="cls-2" d="M197,4.56c-2.62,2.36-3.08,4.07-2.02,7.43.22.68-.64,1.17-1.12.64-2.36-2.62-4.07-3.08-7.43-2.02-.68.22-1.17-.64-.64-1.12,2.62-2.36,3.08-4.07,2.02-7.43-.22-.68.64-1.17,1.12-.64,2.36,2.62,4.07,3.08,7.43,2.02.68-.22,1.17.64.64,1.12Z"/>
    </g>
  </g>
</svg>